<?xml version="1.0"?>
<svg xmlns="http://www.w3.org/2000/svg" id="OutLine" viewBox="0 0 512 512" width="512" height="512"><path d="M464,56a40.047,40.047,0,0,0-40-40H88A40.047,40.047,0,0,0,48,56V296a40.047,40.047,0,0,0,40,40H214.557l-5.333,32H192a8,8,0,0,0,0,16H320a8,8,0,0,0,0-16H302.776l-5.333-32H424a40.047,40.047,0,0,0,40-40ZM225.445,368l5.332-32h50.446l5.332,32ZM448,296a24.027,24.027,0,0,1-24,24H88a24.027,24.027,0,0,1-24-24V272H448Zm0-40H64V56A24.027,24.027,0,0,1,88,32H424a24.027,24.027,0,0,1,24,24Z"/><path d="M424,416a24.027,24.027,0,0,0-24,24v32a24.027,24.027,0,0,0,24,24h16a24.027,24.027,0,0,0,24-24V440a24.027,24.027,0,0,0-24-24Zm24,24v32a8.008,8.008,0,0,1-8,8H424a8.008,8.008,0,0,1-8-8V440a8.008,8.008,0,0,1,8-8,8,8,0,0,0,16,0A8.008,8.008,0,0,1,448,440Z"/><path d="M136,416a8,8,0,0,0-8,8v64a8,8,0,0,0,8,8H360a8,8,0,0,0,8-8V424a8,8,0,0,0-8-8Zm104,16h16v16H240Zm-32,0h16v16H208Zm-48,48H144V464h16Zm0-32H144V432h16Zm32,32H176V464h16Zm0-32H176V432h16Zm96,32H208V464h80Zm0-32H272V432h16Zm32,32H304V464h16Zm0-32H304V432h16Zm32,32H336V464h16Zm0-32H336V432h16Z"/><circle cx="256" cy="296" r="8"/></svg>
